<svg width="282" height="114" viewBox="0 0 282 114" fill="none" xmlns="http://www.w3.org/2000/svg">
<path d="M8.80032 95.3453C7.48272 94.5852 6.43764 93.5401 5.66258 92.2075C4.88753 90.8749 4.5 89.4048 4.5 87.7922C4.5 86.1796 4.88753 84.7095 5.66258 83.3769C6.43764 82.0443 7.48272 80.9992 8.80032 80.2391C10.1179 79.4791 11.558 79.1016 13.1231 79.1016C14.3457 79.1016 15.4958 79.3191 16.5734 79.7516C17.651 80.1866 18.536 80.7967 19.2336 81.5867L17.816 83.0043C17.2884 82.3543 16.6159 81.8543 15.7933 81.5042C14.9708 81.1567 14.0882 80.9817 13.1431 80.9817C11.9655 80.9817 10.8705 81.2642 9.8554 81.8293C8.84032 82.3943 8.02776 83.1919 7.41521 84.2219C6.80267 85.252 6.49765 86.4421 6.49765 87.7897C6.49765 89.1373 6.80267 90.3274 7.41521 91.3575C8.02776 92.3875 8.84532 93.1851 9.86789 93.7501C10.8905 94.3152 11.9831 94.5977 13.1431 94.5977C14.3032 94.5977 15.1908 94.4227 15.9433 94.0752C16.6934 93.7276 17.3409 93.2651 17.8835 92.6926C18.286 92.26 18.611 91.735 18.8586 91.1249C19.1061 90.5124 19.2611 89.8349 19.3236 89.0923H13.1656V87.2572H21.1587C21.2362 87.6922 21.2737 88.0947 21.2737 88.4647C21.2737 89.4873 21.1112 90.4824 20.7862 91.45C20.4612 92.4175 19.9411 93.2676 19.2286 93.9952C17.696 95.6528 15.6583 96.4828 13.1181 96.4828C11.553 96.4828 10.1129 96.1028 8.79532 95.3453H8.80032Z" fill="#202124"/>
<path d="M25.5283 95.6412C24.5983 95.0836 23.8732 94.3236 23.3557 93.3635C22.8356 92.4034 22.5781 91.3409 22.5781 90.1808C22.5781 89.0207 22.8381 87.9581 23.3557 86.998C23.8757 86.038 24.5983 85.2779 25.5283 84.7204C26.4584 84.1628 27.5035 83.8828 28.6661 83.8828C29.8287 83.8828 30.8737 84.1628 31.8038 84.7204C32.7339 85.2779 33.4564 86.038 33.9765 86.998C34.4965 87.9581 34.754 89.0207 34.754 90.1808C34.754 91.3409 34.494 92.4034 33.9765 93.3635C33.4564 94.3236 32.7339 95.0836 31.8038 95.6412C30.8737 96.1987 29.8287 96.4787 28.6661 96.4787C27.5035 96.4787 26.4584 96.1987 25.5283 95.6412ZM30.6987 94.1411C31.3263 93.776 31.8288 93.2535 32.2088 92.5734C32.5889 91.8909 32.7789 91.0933 32.7789 90.1808C32.7789 89.2682 32.5889 88.4681 32.2088 87.7881C31.8288 87.1055 31.3263 86.583 30.6987 86.2205C30.0712 85.8555 29.3936 85.6754 28.6661 85.6754C27.9385 85.6754 27.256 85.858 26.6209 86.2205C25.9859 86.5855 25.4783 87.108 25.0983 87.7881C24.7183 88.4706 24.5283 89.2682 24.5283 90.1808C24.5283 91.0933 24.7183 91.8934 25.0983 92.5734C25.4783 93.256 25.9859 93.7785 26.6209 94.1411C27.256 94.5061 27.9385 94.6861 28.6661 94.6861C29.3936 94.6861 30.0712 94.5036 30.6987 94.1411Z" fill="#202124"/>
<path d="M38.7432 95.6412C37.8131 95.0836 37.0881 94.3236 36.5705 93.3635C36.0505 92.4034 35.793 91.3409 35.793 90.1808C35.793 89.0207 36.053 87.9581 36.5705 86.998C37.0906 86.038 37.8131 85.2779 38.7432 84.7204C39.6733 84.1628 40.7183 83.8828 41.8809 83.8828C43.0435 83.8828 44.0886 84.1628 45.0186 84.7204C45.9487 85.2779 46.6713 86.038 47.1913 86.998C47.7113 87.9581 47.9689 89.0207 47.9689 90.1808C47.9689 91.3409 47.7088 92.4034 47.1913 93.3635C46.6713 94.3236 45.9487 95.0836 45.0186 95.6412C44.0886 96.1987 43.0435 96.4787 41.8809 96.4787C40.7183 96.4787 39.6733 96.1987 38.7432 95.6412ZM43.9136 94.1411C44.5411 93.776 45.0436 93.2535 45.4237 92.5734C45.8037 91.8909 45.9937 91.0933 45.9937 90.1808C45.9937 89.2682 45.8037 88.4681 45.4237 87.7881C45.0436 87.1055 44.5411 86.583 43.9136 86.2205C43.286 85.8555 42.6085 85.6754 41.8809 85.6754C41.1534 85.6754 40.4708 85.858 39.8358 86.2205C39.2007 86.5855 38.6932 87.108 38.3132 87.7881C37.9331 88.4706 37.7431 89.2682 37.7431 90.1808C37.7431 91.0933 37.9331 91.8934 38.3132 92.5734C38.6932 93.256 39.2007 93.7785 39.8358 94.1411C40.4708 94.5061 41.1534 94.6861 41.8809 94.6861C42.6085 94.6861 43.286 94.5036 43.9136 94.1411Z" fill="#202124"/>
<path d="M51.388 100.522C50.4829 99.8715 49.8729 99.0889 49.5629 98.1739L51.353 97.4063C51.6155 98.0889 52.053 98.6414 52.6656 99.0689C53.2781 99.494 54.0007 99.709 54.8382 99.709C56.0608 99.709 57.0109 99.3664 57.686 98.6839C58.361 98.0013 58.696 97.0263 58.696 95.7587V94.4336H58.6035C58.216 95.0386 57.671 95.5287 56.9659 95.9087C56.2608 96.2887 55.4583 96.4787 54.5607 96.4787C53.5381 96.4787 52.6056 96.2112 51.7605 95.6787C50.9155 95.1461 50.2454 94.4011 49.7504 93.446C49.2553 92.4909 49.0078 91.4009 49.0078 90.1808C49.0078 88.9607 49.2553 87.8906 49.7504 86.9255C50.2454 85.963 50.9155 85.2154 51.7605 84.6829C52.6056 84.1503 53.5381 83.8828 54.5607 83.8828C55.4583 83.8828 56.2608 84.0728 56.9659 84.4529C57.671 84.8329 58.216 85.3329 58.6035 85.9505H58.696V84.2553H60.5787V95.6412C60.5787 97.5463 60.0511 98.9989 58.9986 99.999C57.946 100.999 56.5584 101.499 54.8382 101.499C53.4431 101.499 52.2931 101.174 51.388 100.524V100.522ZM56.7784 94.1461C57.3584 93.7835 57.8235 93.266 58.1735 92.5885C58.5235 91.9109 58.696 91.1083 58.696 90.1808C58.696 89.2532 58.521 88.4256 58.1735 87.7506C57.826 87.0755 57.3609 86.558 56.7784 86.2055C56.1958 85.853 55.5508 85.6754 54.8382 85.6754C54.1257 85.6754 53.4756 85.8555 52.8856 86.218C52.2956 86.5805 51.828 87.098 51.4805 87.7756C51.133 88.4531 50.958 89.2557 50.958 90.1833C50.958 91.1108 51.133 91.9184 51.4805 92.6035C51.828 93.2885 52.2981 93.8085 52.8856 94.1611C53.4731 94.5161 54.1257 94.6911 54.8382 94.6911C55.5508 94.6911 56.1983 94.5111 56.7784 94.1486V94.1461Z" fill="#202124"/>
<path d="M62.8672 79.4766H64.8423V96.1153H62.8672V79.4766Z" fill="#202124"/>
<path d="M69.3968 95.6637C68.4992 95.1211 67.7967 94.3736 67.2941 93.421C66.7916 92.4684 66.5391 91.3959 66.5391 90.2033C66.5391 89.0107 66.7741 88.0031 67.2466 87.043C67.7192 86.083 68.3892 85.3154 69.2568 84.7429C70.1243 84.1703 71.1319 83.8828 72.277 83.8828C73.4221 83.8828 74.4446 84.1428 75.2972 84.6604C76.1498 85.1804 76.8048 85.8955 77.2598 86.8105C77.7174 87.7256 77.9449 88.7707 77.9449 89.9483C77.9449 90.1808 77.9224 90.3833 77.8749 90.5533H68.5092C68.5567 91.4509 68.7717 92.2109 69.1593 92.831C69.5468 93.451 70.0393 93.916 70.6344 94.2261C71.2294 94.5361 71.8545 94.6911 72.5045 94.6911C74.0221 94.6911 75.1922 93.9786 76.0123 92.5534L77.6849 93.366C77.1748 94.3261 76.4798 95.0861 75.6047 95.6437C74.7297 96.2012 73.6721 96.4812 72.432 96.4812C71.3019 96.4812 70.2868 96.2112 69.3868 95.6687L69.3968 95.6637ZM75.8572 88.9232C75.8272 88.4281 75.6872 87.9331 75.4397 87.4356C75.1922 86.9405 74.7997 86.5205 74.2671 86.1805C73.7321 85.8405 73.062 85.6704 72.257 85.6704C71.3269 85.6704 70.5419 85.968 69.8993 86.5655C69.2568 87.1631 68.8342 87.9481 68.6317 88.9232H75.8598H75.8572Z" fill="#202124"/>
<path d="M85.5703 79.4766H90.5907C92.2958 79.4766 93.7809 79.8291 95.0535 80.5341C96.3236 81.2392 97.2987 82.2193 97.9812 83.4744C98.6638 84.7294 99.0038 86.1696 99.0038 87.7972C99.0038 89.4248 98.6638 90.8649 97.9812 92.12C97.2987 93.3751 96.3236 94.3552 95.0535 95.0602C93.7834 95.7653 92.2958 96.1178 90.5907 96.1178H85.5703V79.4766ZM90.5882 94.2326C92.5558 94.2326 94.116 93.6676 95.271 92.535C96.4261 91.4049 97.0012 89.8248 97.0012 87.7947C97.0012 85.7645 96.4236 84.1844 95.271 83.0543C94.116 81.9242 92.5558 81.3567 90.5882 81.3567H87.5205V94.2301H90.5882V94.2326Z" fill="#202124"/>
<path d="M103.166 95.6637C102.269 95.1211 101.566 94.3736 101.064 93.421C100.561 92.4684 100.309 91.3959 100.309 90.2033C100.309 89.0107 100.544 88.0031 101.016 87.043C101.489 86.083 102.159 85.3154 103.026 84.7429C103.894 84.1703 104.901 83.8828 106.047 83.8828C107.192 83.8828 108.214 84.1428 109.067 84.6604C109.919 85.1804 110.574 85.8955 111.029 86.8105C111.487 87.7256 111.714 88.7707 111.714 89.9483C111.714 90.1808 111.692 90.3833 111.644 90.5533H102.279C102.326 91.4509 102.541 92.2109 102.929 92.831C103.316 93.451 103.809 93.916 104.404 94.2261C104.999 94.5361 105.624 94.6911 106.274 94.6911C107.792 94.6911 108.962 93.9786 109.782 92.5534L111.454 93.366C110.944 94.3261 110.249 95.0861 109.374 95.6437C108.499 96.2012 107.442 96.4812 106.202 96.4812C105.071 96.4812 104.056 96.2112 103.156 95.6687L103.166 95.6637ZM109.627 88.9232C109.597 88.4281 109.457 87.9331 109.209 87.4356C108.962 86.9405 108.569 86.5205 108.037 86.1805C107.502 85.8405 106.832 85.6704 106.027 85.6704C105.096 85.6704 104.311 85.968 103.669 86.5655C103.026 87.1631 102.604 87.9481 102.401 88.9232H109.629H109.627Z" fill="#202124"/>
<path d="M111.633 84.2539H113.748L117.421 93.7821H117.468L121.186 84.2539H123.254L118.421 96.1048H116.423L111.635 84.2539H111.633Z" fill="#202124"/>
<path d="M125.963 95.6637C125.066 95.1211 124.363 94.3736 123.861 93.421C123.358 92.4684 123.105 91.3959 123.105 90.2033C123.105 89.0107 123.34 88.0031 123.813 87.043C124.286 86.083 124.956 85.3154 125.823 84.7429C126.691 84.1703 127.698 83.8828 128.843 83.8828C129.988 83.8828 131.011 84.1428 131.864 84.6604C132.716 85.1804 133.371 85.8955 133.826 86.8105C134.284 87.7256 134.511 88.7707 134.511 89.9483C134.511 90.1808 134.489 90.3833 134.441 90.5533H125.076C125.123 91.4509 125.338 92.2109 125.726 92.831C126.113 93.451 126.606 93.916 127.201 94.2261C127.796 94.5361 128.421 94.6911 129.071 94.6911C130.589 94.6911 131.759 93.9786 132.579 92.5534L134.251 93.366C133.741 94.3261 133.046 95.0861 132.171 95.6437C131.296 96.2012 130.238 96.4812 128.998 96.4812C127.868 96.4812 126.853 96.2112 125.953 95.6687L125.963 95.6637ZM132.424 88.9232C132.394 88.4281 132.254 87.9331 132.006 87.4356C131.759 86.9405 131.366 86.5205 130.834 86.1805C130.299 85.8405 129.628 85.6704 128.823 85.6704C127.893 85.6704 127.108 85.968 126.466 86.5655C125.823 87.1631 125.401 87.9481 125.198 88.9232H132.426H132.424Z" fill="#202124"/>
<path d="M136.207 79.4766H138.182V96.1153H136.207V79.4766Z" fill="#202124"/>
<path d="M142.825 95.6412C141.895 95.0836 141.17 94.3236 140.653 93.3635C140.133 92.4034 139.875 91.3409 139.875 90.1808C139.875 89.0207 140.135 87.9581 140.653 86.998C141.173 86.038 141.895 85.2779 142.825 84.7204C143.755 84.1628 144.8 83.8828 145.963 83.8828C147.126 83.8828 148.171 84.1628 149.101 84.7204C150.031 85.2779 150.753 86.038 151.273 86.998C151.793 87.9581 152.051 89.0207 152.051 90.1808C152.051 91.3409 151.791 92.4034 151.273 93.3635C150.753 94.3236 150.031 95.0836 149.101 95.6412C148.171 96.1987 147.126 96.4787 145.963 96.4787C144.8 96.4787 143.755 96.1987 142.825 95.6412ZM147.996 94.1411C148.623 93.776 149.126 93.2535 149.506 92.5734C149.886 91.8909 150.076 91.0933 150.076 90.1808C150.076 89.2682 149.886 88.4681 149.506 87.7881C149.126 87.1055 148.623 86.583 147.996 86.2205C147.368 85.8555 146.69 85.6754 145.963 85.6754C145.235 85.6754 144.553 85.858 143.918 86.2205C143.283 86.5855 142.775 87.108 142.395 87.7881C142.015 88.4706 141.825 89.2682 141.825 90.1808C141.825 91.0933 142.015 91.8934 142.395 92.5734C142.775 93.256 143.283 93.7785 143.918 94.1411C144.553 94.5061 145.235 94.6861 145.963 94.6861C146.69 94.6861 147.368 94.5036 147.996 94.1411Z" fill="#202124"/>
<path d="M153.676 84.2553H155.558V86.0205H155.651C156.006 85.4154 156.546 84.9079 157.266 84.4979C157.986 84.0878 158.796 83.8828 159.694 83.8828C160.746 83.8828 161.706 84.1528 162.574 84.6954C163.441 85.2379 164.124 85.988 164.619 86.9505C165.114 87.9106 165.362 88.9882 165.362 90.1808C165.362 91.3734 165.114 92.4709 164.619 93.4235C164.124 94.3761 163.441 95.1236 162.574 95.6662C161.706 96.2087 160.746 96.4787 159.694 96.4787C158.796 96.4787 157.986 96.2737 157.266 95.8637C156.546 95.4537 156.008 94.9536 155.651 94.3636H155.558L155.651 95.9912V101.127H153.676V84.2553ZM161.391 94.1311C161.996 93.7585 162.479 93.2285 162.844 92.5384C163.209 91.8484 163.389 91.0633 163.389 90.1808C163.389 89.2982 163.206 88.5107 162.844 87.8231C162.479 87.133 161.996 86.603 161.391 86.2305C160.786 85.858 160.144 85.6729 159.464 85.6729C158.784 85.6729 158.139 85.858 157.536 86.2305C156.931 86.603 156.451 87.1281 156.096 87.8106C155.738 88.4932 155.561 89.2832 155.561 90.1808C155.561 91.0783 155.738 91.8684 156.096 92.5509C156.451 93.2335 156.934 93.7585 157.536 94.1311C158.139 94.5036 158.784 94.6886 159.464 94.6886C160.144 94.6886 160.789 94.5036 161.391 94.1311Z" fill="#202124"/>
<path d="M169.276 95.6637C168.378 95.1211 167.676 94.3736 167.173 93.421C166.67 92.4684 166.418 91.3959 166.418 90.2033C166.418 89.0107 166.653 88.0031 167.126 87.043C167.598 86.083 168.268 85.3154 169.136 84.7429C170.003 84.1703 171.011 83.8828 172.156 83.8828C173.301 83.8828 174.324 84.1428 175.176 84.6604C176.029 85.1804 176.684 85.8955 177.139 86.8105C177.596 87.7256 177.824 88.7707 177.824 89.9483C177.824 90.1808 177.801 90.3833 177.754 90.5533H168.388C168.436 91.4509 168.651 92.2109 169.038 92.831C169.426 93.451 169.918 93.916 170.513 94.2261C171.108 94.5361 171.733 94.6911 172.383 94.6911C173.901 94.6911 175.071 93.9786 175.891 92.5534L177.564 93.366C177.054 94.3261 176.359 95.0861 175.484 95.6437C174.609 96.2012 173.551 96.4812 172.311 96.4812C171.181 96.4812 170.166 96.2112 169.266 95.6687L169.276 95.6637ZM175.736 88.9232C175.706 88.4281 175.566 87.9331 175.319 87.4356C175.071 86.9405 174.679 86.5205 174.146 86.1805C173.611 85.8405 172.941 85.6704 172.136 85.6704C171.206 85.6704 170.421 85.968 169.778 86.5655C169.136 87.1631 168.713 87.9481 168.511 88.9232H175.739H175.736Z" fill="#202124"/>
<path d="M179.496 84.2553H181.379V86.1605H181.471C181.704 85.5104 182.154 84.9679 182.819 84.5329C183.484 84.1003 184.181 83.8828 184.909 83.8828C185.452 83.8828 185.917 83.9678 186.304 84.1378V86.253C185.809 86.0055 185.251 85.8805 184.631 85.8805C184.059 85.8805 183.531 86.043 183.051 86.3705C182.571 86.6955 182.189 87.1356 181.901 87.6856C181.614 88.2381 181.471 88.8307 181.471 89.4682V96.1062H179.496V84.2553Z" fill="#202124"/>
<path d="M193.535 79.4766H199.136C200.066 79.4766 200.926 79.6866 201.716 80.1041C202.506 80.5216 203.136 81.1067 203.608 81.8592C204.081 82.6118 204.316 83.4594 204.316 84.4044C204.316 85.3495 204.078 86.1971 203.608 86.9496C203.136 87.7022 202.503 88.2847 201.716 88.7047C200.926 89.1223 200.066 89.3323 199.136 89.3323H195.488V96.1178H193.535V79.4766ZM199.181 87.4471C199.801 87.4471 200.346 87.2996 200.818 87.0046C201.291 86.7096 201.658 86.3296 201.923 85.867C202.186 85.402 202.318 84.9145 202.318 84.4019C202.318 83.8894 202.186 83.4019 201.923 82.9368C201.661 82.4718 201.291 82.0918 200.818 81.7992C200.346 81.5042 199.801 81.3567 199.181 81.3567H195.485V87.4446H199.181V87.4471Z" fill="#202124"/>
<path d="M205.68 84.2553H207.562V86.1605H207.655C207.887 85.5104 208.337 84.9679 209.002 84.5329C209.667 84.1003 210.365 83.8828 211.093 83.8828C211.635 83.8828 212.1 83.9678 212.488 84.1378V86.253C211.993 86.0055 211.435 85.8805 210.815 85.8805C210.243 85.8805 209.715 86.043 209.235 86.3705C208.755 86.6955 208.372 87.1356 208.085 87.6856C207.797 88.2381 207.655 88.8307 207.655 89.4682V96.1062H205.68V84.2553Z" fill="#202124"/>
<path d="M215.735 95.6412C214.805 95.0836 214.08 94.3236 213.563 93.3635C213.043 92.4034 212.785 91.3409 212.785 90.1808C212.785 89.0207 213.045 87.9581 213.563 86.998C214.083 86.038 214.805 85.2779 215.735 84.7204C216.665 84.1628 217.711 83.8828 218.873 83.8828C220.036 83.8828 221.081 84.1628 222.011 84.7204C222.941 85.2779 223.663 86.038 224.183 86.998C224.704 87.9581 224.961 89.0207 224.961 90.1808C224.961 91.3409 224.701 92.4034 224.183 93.3635C223.663 94.3236 222.941 95.0836 222.011 95.6412C221.081 96.1987 220.036 96.4787 218.873 96.4787C217.711 96.4787 216.665 96.1987 215.735 95.6412ZM220.906 94.1411C221.533 93.776 222.036 93.2535 222.416 92.5734C222.796 91.8909 222.986 91.0933 222.986 90.1808C222.986 89.2682 222.796 88.4681 222.416 87.7881C222.036 87.1055 221.533 86.583 220.906 86.2205C220.278 85.8555 219.601 85.6754 218.873 85.6754C218.146 85.6754 217.463 85.858 216.828 86.2205C216.193 86.5855 215.685 87.108 215.305 87.7881C214.925 88.4706 214.735 89.2682 214.735 90.1808C214.735 91.0933 214.925 91.8934 215.305 92.5734C215.685 93.256 216.193 93.7785 216.828 94.1411C217.463 94.5061 218.146 94.6861 218.873 94.6861C219.601 94.6861 220.278 94.5036 220.906 94.1411Z" fill="#202124"/>
<path d="M228.376 100.522C227.471 99.8715 226.861 99.0889 226.551 98.1739L228.341 97.4063C228.604 98.0889 229.041 98.6414 229.654 99.0689C230.266 99.494 230.989 99.709 231.827 99.709C233.049 99.709 233.999 99.3664 234.674 98.6839C235.349 98.0013 235.684 97.0263 235.684 95.7587V94.4336H235.592C235.204 95.0386 234.659 95.5287 233.954 95.9087C233.249 96.2887 232.447 96.4787 231.549 96.4787C230.526 96.4787 229.594 96.2112 228.749 95.6787C227.904 95.1461 227.234 94.4011 226.739 93.446C226.244 92.4909 225.996 91.4009 225.996 90.1808C225.996 88.9607 226.244 87.8906 226.739 86.9255C227.234 85.963 227.904 85.2154 228.749 84.6829C229.594 84.1503 230.526 83.8828 231.549 83.8828C232.447 83.8828 233.249 84.0728 233.954 84.4529C234.659 84.8329 235.204 85.3329 235.592 85.9505H235.684V84.2553H237.567V95.6412C237.567 97.5463 237.039 98.9989 235.987 99.999C234.934 100.999 233.547 101.499 231.827 101.499C230.431 101.499 229.281 101.174 228.376 100.524V100.522ZM233.769 94.1461C234.349 93.7835 234.814 93.266 235.164 92.5885C235.514 91.9109 235.687 91.1083 235.687 90.1808C235.687 89.2532 235.512 88.4256 235.164 87.7506C234.817 87.0755 234.352 86.558 233.769 86.2055C233.187 85.853 232.542 85.6754 231.829 85.6754C231.116 85.6754 230.466 85.8555 229.876 86.218C229.286 86.5805 228.819 87.098 228.471 87.7756C228.124 88.4531 227.949 89.2557 227.949 90.1833C227.949 91.1108 228.124 91.9184 228.471 92.6035C228.819 93.2885 229.289 93.8085 229.876 94.1611C230.464 94.5161 231.116 94.6911 231.829 94.6911C232.542 94.6911 233.189 94.5111 233.769 94.1486V94.1461Z" fill="#202124"/>
<path d="M239.859 84.2553H241.742V86.1605H241.835C242.067 85.5104 242.517 84.9679 243.182 84.5329C243.847 84.1003 244.545 83.8828 245.272 83.8828C245.815 83.8828 246.28 83.9678 246.667 84.1378V86.253C246.172 86.0055 245.615 85.8805 244.995 85.8805C244.422 85.8805 243.895 86.043 243.415 86.3705C242.935 86.6955 242.552 87.1356 242.265 87.6856C241.977 88.2381 241.835 88.8307 241.835 89.4682V96.1062H239.859V84.2553Z" fill="#202124"/>
<path d="M249.388 95.9715C248.705 95.6315 248.18 95.1615 247.808 94.5664C247.435 93.9714 247.25 93.2913 247.25 92.5338C247.25 91.2787 247.723 90.2986 248.668 89.5935C249.613 88.8885 250.805 88.536 252.245 88.536C252.958 88.536 253.62 88.6135 254.233 88.7685C254.846 88.9235 255.313 89.101 255.638 89.3035V88.5835C255.638 87.7009 255.328 86.9909 254.708 86.4583C254.088 85.9233 253.305 85.6558 252.36 85.6558C251.693 85.6558 251.083 85.7983 250.525 86.0858C249.968 86.3733 249.525 86.7708 249.2 87.2834L247.713 86.1683C248.178 85.4557 248.815 84.8982 249.63 84.4957C250.443 84.0931 251.345 83.8906 252.338 83.8906C253.948 83.8906 255.216 84.3132 256.138 85.1582C257.061 86.0033 257.521 87.1534 257.521 88.6085V96.114H255.638V94.4164H255.546C255.206 94.9889 254.693 95.479 254.013 95.8815C253.33 96.284 252.565 96.4865 251.713 96.4865C250.86 96.4865 250.07 96.3165 249.39 95.9765L249.388 95.9715ZM253.758 94.2289C254.331 93.8889 254.788 93.4313 255.128 92.8588C255.468 92.2862 255.638 91.6587 255.638 90.9761C255.266 90.7286 254.808 90.5261 254.268 90.3711C253.725 90.2161 253.153 90.1386 252.548 90.1386C251.463 90.1386 250.645 90.3636 250.095 90.8136C249.545 91.2637 249.27 91.8437 249.27 92.5563C249.27 93.2063 249.518 93.7338 250.013 94.1364C250.508 94.5389 251.135 94.7414 251.895 94.7414C252.56 94.7414 253.18 94.5714 253.755 94.2314L253.758 94.2289Z" fill="#202124"/>
<path d="M259.693 84.2553H261.575V85.998H261.668C262.008 85.3929 262.52 84.8904 263.2 84.4879C263.883 84.0853 264.603 83.8828 265.36 83.8828C266.228 83.8828 266.983 84.0928 267.626 84.5104C268.268 84.9279 268.731 85.4854 269.008 86.183C269.426 85.4854 269.981 84.9279 270.671 84.5104C271.361 84.0928 272.161 83.8828 273.076 83.8828C274.439 83.8828 275.466 84.2978 276.154 85.1254C276.844 85.9555 277.189 87.0805 277.189 88.5057V96.1037H275.236V88.8082C275.236 87.7081 275.011 86.9105 274.561 86.4155C274.111 85.9205 273.446 85.6729 272.563 85.6729C271.973 85.6729 271.441 85.843 270.961 86.183C270.481 86.523 270.106 86.9805 269.833 87.5531C269.563 88.1256 269.426 88.7457 269.426 89.4132V96.1062H267.451V88.8332C267.451 87.7181 267.226 86.913 266.776 86.4155C266.325 85.9205 265.668 85.6729 264.8 85.6729C264.21 85.6729 263.678 85.848 263.198 86.1955C262.718 86.543 262.343 87.008 262.07 87.5906C261.8 88.1706 261.663 88.7957 261.663 89.4607V96.1062H259.688V84.2553H259.693Z" fill="#202124"/>
<path d="M159.114 25.6779L153.367 32.9349L149.762 37.4875L143.751 29.8961C142.821 28.7975 141.645 28.6322 141.021 28.6322C140.396 28.6322 139.221 28.7975 138.291 29.8961L132.279 37.4875L128.756 41.9409L128.679 42.0401L128.598 42.143L122.932 49.2971L120.338 52.5746C120.283 52.6445 120.227 52.7106 120.172 52.7767C116.505 57.1786 111.28 59.5634 105.838 59.5634C103.7 59.5634 101.528 59.1958 99.4045 58.4353C91.8279 55.7162 86.9336 48.7532 86.9336 40.6917V34.2797C86.9336 38.3289 90.2148 41.6102 94.264 41.6102C98.3132 41.6102 101.594 38.3289 101.594 34.2797V40.6917C101.594 43.3555 103.52 44.3329 104.35 44.6306C105.17 44.9245 107.249 45.3875 108.914 43.3813L113.584 37.4875L117.133 33.0048L117.189 32.9349L117.229 32.8834L122.936 25.6779L126.86 20.7248C126.889 20.6881 126.918 20.6514 126.948 20.6183C130.424 16.3927 135.557 13.9713 141.028 13.9713C146.499 13.9713 151.633 16.3927 155.109 20.6183C155.138 20.655 155.167 20.6881 155.197 20.7248L159.121 25.6779H159.114Z" fill="#4285F4" stroke="#202124" stroke-width="1.13736" stroke-miterlimit="10"/>
<path d="M120.334 22.404L122.928 25.6816L117.222 32.8871L117.181 32.9387L117.126 33.0083L113.577 37.4912L108.91 31.5975C107.246 29.5913 105.166 30.0541 104.347 30.3481C103.52 30.6458 101.591 31.6231 101.591 34.2871C101.591 38.3364 98.3096 41.6175 94.2604 41.6175C90.2112 41.6175 86.9336 38.3289 86.9336 34.2798C86.9336 26.2181 91.8279 19.2551 99.4045 16.5397C106.926 13.8427 115.061 16.0657 120.169 22.1946C120.224 22.2608 120.283 22.3306 120.338 22.3967L120.334 22.404Z" fill="#EA4335" stroke="#202124" stroke-width="1.13736" stroke-miterlimit="10"/>
<path d="M128.756 41.9372L128.678 42.0364L128.598 42.1393C128.653 42.0732 128.704 42.0071 128.756 41.9409V41.9372Z" fill="#EA4335" stroke="#202124" stroke-width="1.13736" stroke-miterlimit="10"/>
<path d="M117.129 33.0058C117.158 32.9649 117.192 32.9243 117.225 32.8834L117.184 32.9354L117.129 33.0058Z" fill="#34A853" stroke="#202124" stroke-width="1.13736" stroke-miterlimit="10"/>
<path d="M195.114 34.2797V40.6915C195.114 36.6424 191.832 33.3612 187.783 33.3612C183.734 33.3612 180.453 36.6424 180.453 40.6915V34.2797C180.453 31.6158 178.527 30.6385 177.697 30.3408C176.877 30.0468 174.798 29.5838 173.133 31.5901L168.467 37.4838L164.917 41.9666L164.862 42.0364L164.822 42.0879L159.115 49.2934L155.191 54.2465C155.162 54.2832 155.132 54.32 155.103 54.353C151.627 58.575 146.494 61 141.023 61C135.551 61 130.418 58.5786 126.942 54.353C126.913 54.3162 126.883 54.2832 126.854 54.2465L122.93 49.2896L128.596 42.1356C128.651 42.0695 128.702 42.0033 128.754 41.9372L132.277 37.4838L138.289 45.0751C139.218 46.1738 140.394 46.3391 141.019 46.3391C141.644 46.3391 142.819 46.1738 143.745 45.0751L149.757 37.4838L153.302 33.0048L153.357 32.935L153.409 32.8688L159.104 25.678L161.698 22.4004C161.754 22.3306 161.812 22.2608 161.867 22.1946C166.975 16.0657 175.11 13.8464 182.631 16.5397C190.204 19.2551 195.102 26.2181 195.102 34.2797H195.114Z" fill="#34A853" stroke="#202124" stroke-width="1.13736" stroke-miterlimit="10"/>
<path d="M153.307 33.0048C153.34 32.9607 153.376 32.9129 153.413 32.8688L153.362 32.9349L153.307 33.0048Z" fill="#FBBC04" stroke="#202124" stroke-width="1.13736" stroke-miterlimit="10"/>
<path d="M195.112 40.6915C195.112 48.7532 190.217 55.7162 182.64 58.4316C180.517 59.1923 178.345 59.5597 176.207 59.5597C170.769 59.5597 165.544 57.175 161.876 52.773C161.818 52.7069 161.763 52.637 161.707 52.5673L159.113 49.2896L164.82 42.0842L164.86 42.0327L164.915 41.963L168.465 37.4801L173.131 43.3738C174.796 45.3801 176.879 44.9172 177.695 44.6233C178.522 44.3256 180.451 43.3482 180.451 40.6842C180.451 36.635 183.732 33.3539 187.781 33.3539C191.83 33.3539 195.112 36.635 195.112 40.6842V40.6915Z" fill="#FBBC04" stroke="#202124" stroke-width="1.13736" stroke-miterlimit="10"/>
</svg>
